<!-- Created by Henning Gross from the Noun Project -->
<svg xmlns="http://www.w3.org/2000/svg" viewBox="0 0 24 24" fill="none" x="0px" y="0px"><path d="M14.5 18.8806C14.5 19.2607 14.0926 19.5018 13.7594 19.3189L9.75937 17.1228C9.59941 17.035 9.5 16.867 9.5 16.6845V5.059C9.5 4.68731 9.89116 4.44557 10.2236 4.61179L14.2236 6.61179C14.393 6.69649 14.5 6.86962 14.5 7.05901V18.8806Z" fill="#455A64"/><path d="M15.5 18.8182C15.5 19.2067 15.9236 19.4468 16.2569 19.2472L20.2569 16.8515C20.4077 16.7611 20.5 16.5983 20.5 16.4225V4.84226C20.5 4.46273 20.0938 4.22157 19.7606 4.40331L15.7606 6.58513C15.5999 6.67275 15.5 6.8411 15.5 7.02408V18.8182Z" fill="#455A64"/><path d="M3.74309 7.14851L7.74309 4.75279C8.07636 4.55319 8.5 4.79327 8.5 5.18174V16.722C8.5 16.8978 8.40771 17.0606 8.25691 17.1509L4.25691 19.5467C3.92364 19.7463 3.5 19.5062 3.5 19.1177V7.57746C3.5 7.40169 3.5923 7.23883 3.74309 7.14851Z" fill="#455A64"/></svg>