<!-- Pin by Manglayang studio from the Noun Project -->
<svg xmlns="http://www.w3.org/2000/svg" viewBox="0 0 100 100" x="0px" y="0px"><path d="M69,9.5H31a2,2,0,0,0-2,2v9a2,2,0,0,0,2,2h4.79V44.63a6.75,6.75,0,0,0-5.43,6.6V56.5a2,2,0,0,0,2,2H48v30a2,2,0,0,0,4,0v-30H67.64a2,2,0,0,0,2-2V51.23a6.75,6.75,0,0,0-5.43-6.6V22.5H69a2,2,0,0,0,2-2v-9A2,2,0,0,0,69,9.5ZM65.64,51.23V54.5H34.36V51.23a2.73,2.73,0,0,1,2.73-2.73H62.91A2.73,2.73,0,0,1,65.64,51.23ZM60.21,44.5H39.79v-22H60.21ZM67,18.5H33v-5H67Z" fill="#455A64"/></svg>