<svg xmlns="http://www.w3.org/2000/svg" xmlns:xlink="http://www.w3.org/1999/xlink" version="1.1" x="0px" y="0px" viewBox="0 0 48 48" enable-background="new 0 0 48 48" xml:space="preserve"><g><path d="M45.5,0.5h-43c-1.1,0-2,0.9-2,2v11.2h47V2.5C47.5,1.4,46.6,0.5,45.5,0.5z M12.1,8.5C11.7,8.8,11.2,9,10.7,9s-1-0.2-1.4-0.6   C9,8.1,8.8,7.6,8.8,7.1s0.2-1,0.6-1.4c0.7-0.7,2-0.7,2.8,0c0.4,0.4,0.6,0.9,0.6,1.4C12.7,7.6,12.5,8.1,12.1,8.5z M22.1,8.5   C21.7,8.8,21.2,9,20.7,9s-1-0.2-1.4-0.6C18.9,8,18.7,7.5,18.7,7s0.2-1,0.6-1.4c0.7-0.7,2-0.7,2.8,0C22.5,6,22.7,6.5,22.7,7   C22.6,7.6,22.4,8.1,22.1,8.5z" fill="#455A64"/><path d="M0.5,17.6v28c0,1.1,0.9,2,2,2h43.1c1.1,0,2-0.9,2-2v-28C47.6,17.6,0.5,17.6,0.5,17.6z M33.3,39.7H14.7c-1.1,0-2-0.9-2-2   s0.9-2,2-2h18.6c1.1,0,2,0.9,2,2S34.4,39.7,33.3,39.7z M33.3,29.3H14.7c-1.1,0-2-0.9-2-2s0.9-2,2-2h18.6c1.1,0,2,0.9,2,2   S34.4,29.3,33.3,29.3z" fill="#455A64"/></g><text x="0" y="63" fill="#000000" font-size="5px" font-weight="bold" font-family="'Helvetica Neue', Helvetica, Arial-Unicode, Arial, Sans-serif">Created by Vectors Market</text><text x="0" y="68" fill="#000000" font-size="5px" font-weight="bold" font-family="'Helvetica Neue', Helvetica, Arial-Unicode, Arial, Sans-serif">from the Noun Project</text></svg>